<svg version="1.2" xmlns="http://www.w3.org/2000/svg" viewBox="0 0 759 459" width="759" height="459">
	<title>Sponzor 10</title>
	<defs>
		<clipPath clipPathUnits="userSpaceOnUse" id="cp1">
			<path d="m-87-63h935v587h-935z"/>
		</clipPath>
		<linearGradient id="g1" x2="1" gradientUnits="userSpaceOnUse" gradientTransform="matrix(586.687,0,0,122.388,82.233,315.833)">
			<stop offset="0" stop-color="#ffed59"/>
			<stop offset=".281" stop-color="#ffc333"/>
			<stop offset=".668" stop-color="#ff8d40"/>
			<stop offset=".888" stop-color="#ff6337"/>
			<stop offset="1" stop-color="#ff4031"/>
		</linearGradient>
		<radialGradient id="g2" cx="0" cy="0" r="1" gradientUnits="userSpaceOnUse" gradientTransform="matrix(404.814,0,0,404.814,481.18,295.033)">
			<stop offset="0" stop-color="#dfe6e6"/>
			<stop offset=".3" stop-color="#859597"/>
			<stop offset="1" stop-color="#859597"/>
		</radialGradient>
		<radialGradient id="g3" cx="0" cy="0" r="1" gradientUnits="userSpaceOnUse" gradientTransform="matrix(94.79,-101.709,101.709,94.79,488.606,318.087)">
			<stop offset="0" stop-color="#cae8c1"/>
			<stop offset="1" stop-color="#669631"/>
		</radialGradient>
		<radialGradient id="g4" cx="0" cy="0" r="1" gradientUnits="userSpaceOnUse" gradientTransform="matrix(463.483,0,0,463.483,522.248,148.689)">
			<stop offset="0" stop-color="#9cb9d0"/>
			<stop offset=".29" stop-color="#11397c"/>
			<stop offset="1" stop-color="#11397c"/>
		</radialGradient>
	</defs>
	<style>
		.s0 { fill: #ffffff;stroke: #ffffff;stroke-miterlimit:22.926000595092773;stroke-width: 5.7 } 
		.s1 { fill: url(#g1) } 
		.s2 { fill: url(#g2) } 
		.s3 { fill: url(#g3) } 
		.s4 { fill: #ffffff } 
		.s5 { fill: url(#g4) } 
	</style>
	<g id="Page 1" clip-path="url(#cp1)">
		<path id="Path 1" class="s0" d="m668.9 301.1v75.9h-586.7v-76.8-209.2h586.7z"/>
		<path id="Path 2" class="s1" d="m82.2 304.4v47.8c0 13.7 11.2 24.8 24.9 24.8h537c13.7 0 24.8-11.1 24.8-24.8v-46.9c-82.2-34.5-187.4-50.7-291.7-50.7-108.2 0-215.4 17.4-295 49.8z"/>
		<path id="Path 3" class="s2" d="m373.9 254.6c-107.1 0.4-212.9 17.8-291.7 49.8v47.8c0 13.7 11.2 24.8 24.9 24.8h537c13.7 0 24.8-11.1 24.8-24.8v-46.9c-81.4-34.1-185.2-50.3-288.4-50.7z"/>
		<path id="Path 4" class="s3" d="m82.2 304.4v47.8c0 13.7 11.2 24.8 24.9 24.8h537c13.7 0 24.8-11.1 24.8-24.8v-46.9c-82.2-34.5-187.4-50.7-291.7-50.7-108.2 0-215.4 17.4-295 49.8z"/>
		<path id="Path 5" fill-rule="evenodd" class="s4" d="m185.2 339.6h22.9q3.4 0 5.2 1.2 1.8 1.1 1.8 3.1 0 1.8-1.4 3-1.4 1.2-4.3 1.2h-32.3q-3.3 0-5.2-1.5-1.8-1.5-1.8-3.5 0-1.3 1.2-3.4 1.2-2.2 2.6-3.4 5.8-5 10.5-8.5 4.7-3.6 6.7-4.7 3.6-2.1 6-4.2 2.4-2.1 3.6-4.3 1.3-2.2 1.3-4.4 0-2.3-1.4-4.1-1.3-1.8-3.6-2.8-2.3-1-5-1-5.8 0-9.1 4.1-0.4 0.6-1.4 3-1.1 2.4-2.3 3.7-1.3 1.3-3.8 1.3-2.2 0-3.7-1.2-1.4-1.2-1.4-3.3 0-2.4 1.3-5.1 1.4-2.7 4.1-5 2.7-2.2 6.8-3.5 4.2-1.4 9.7-1.4 6.8 0 11.5 1.8 3.1 1.1 5.4 3.1 2.3 2.1 3.6 4.7 1.3 2.7 1.3 5.5 0 4.5-2.7 8.1-2.7 3.7-5.5 5.8-2.8 2-9.4 6.5-6.6 4.4-9.1 6.9-1 0.9-2.1 2.3zm151.6-17.4q0 5.9-0.8 10.2-0.9 4.2-3.3 7.7-3 4.2-7.7 6.5-4.7 2.3-10.5 2.3-6.7 0-12-3.1-5.3-3.1-7.9-8.5-1.4-3-2-6.6-0.7-3.7-0.7-7.9 0-5.4 0.7-9.8 0.7-4.4 2.2-7.5 2.6-5.2 7.5-7.9 5-2.7 11.8-2.7 4.5 0 8.2 1.2 3.7 1.2 6.5 3.5 2.8 2.3 4.7 5.8 3.3 5.9 3.3 16.8zm-12-0.7q0-6.6-0.9-10.8-1-4.2-3.3-6.4-2.3-2.1-6.3-2.1-5.8 0-8.1 4.8-2.2 4.8-2.2 14.8 0 6.7 0.9 11.1 1 4.3 3.3 6.5 2.3 2.2 6.2 2.2 4 0 6.3-2.3 2.3-2.3 3.2-6.6 0.9-4.3 0.9-11.2zm134.6 0.7q0 5.9-0.9 10.2-0.9 4.2-3.2 7.7-3 4.2-7.7 6.5-4.8 2.3-10.6 2.3-6.6 0-11.9-3.1-5.3-3.1-8-8.5-1.3-3-2-6.6-0.6-3.7-0.6-7.9 0-5.4 0.7-9.8 0.7-4.4 2.2-7.5 2.6-5.2 7.5-7.9 4.9-2.7 11.8-2.7 4.5 0 8.2 1.2 3.7 1.2 6.5 3.5 2.7 2.3 4.7 5.8 3.3 5.9 3.3 16.8zm-12-0.7q0-6.6-1-10.8-0.9-4.2-3.2-6.4-2.3-2.1-6.3-2.1-5.8 0-8.1 4.8-2.2 4.8-2.3 14.8 0 6.7 1 11.1 1 4.3 3.3 6.5 2.2 2.2 6.1 2.2 4.1 0 6.4-2.3 2.2-2.3 3.2-6.6 0.9-4.3 0.9-11.2zm134.6 0.7q0 5.9-0.9 10.2-0.9 4.2-3.2 7.7-3 4.2-7.8 6.5-4.7 2.3-10.5 2.3-6.7 0-12-3.1-5.2-3.1-7.9-8.5-1.4-3-2-6.6-0.6-3.7-0.6-7.9 0-5.4 0.7-9.8 0.7-4.4 2.2-7.5 2.5-5.2 7.5-7.9 4.9-2.7 11.8-2.7 4.5 0 8.2 1.2 3.6 1.2 6.4 3.5 2.8 2.3 4.7 5.8 3.4 5.9 3.4 16.8zm-12-0.7q0-6.6-1-10.8-1-4.2-3.3-6.4-2.2-2.1-6.3-2.1-5.8 0-8 4.8-2.3 4.8-2.3 14.8 0 6.7 1 11.1 0.9 4.3 3.2 6.5 2.3 2.2 6.2 2.2 4.1 0 6.3-2.3 2.3-2.3 3.2-6.6 1-4.3 1-11.2z"/>
		<path id="Path 6" class="s5" d="m106.6 91c-13.5 0.3-24.4 11.3-24.4 24.9v174.1c0 2.9 2.9 4.9 5.7 3.8 79.5-30.5 184-46.9 289.3-46.9 101.6 0 204.1 15.3 286 47.8 2.8 1.1 5.7-0.9 5.7-3.9v-174.9c0-13.6-10.8-24.6-24.3-24.9z"/>
		<path id="Path 7" fill-rule="evenodd" class="s4" d="m164.7 129.4q13.1 0 22.5 5.5 9.4 5.5 14.2 15.7 4.9 10.1 4.9 23.8 0 10.1-2.7 18.4-2.6 8.3-7.9 14.3-5.3 6.1-13 9.3-7.7 3.2-17.6 3.2-9.9 0-17.7-3.3-7.8-3.3-13-9.3-5.2-6-7.9-14.5-2.7-8.4-2.7-18.2 0-10.1 2.8-18.5 2.8-8.4 8.1-14.2 5.2-5.9 12.8-9.1 7.6-3.1 17.2-3.1zm24.3 44.9q0-9.6-3-16.6-3-7-8.5-10.6-5.6-3.6-12.8-3.6-5.1 0-9.4 1.9-4.3 2-7.5 5.8-3.1 3.9-4.9 9.8-1.8 5.9-1.8 13.3 0 7.4 1.8 13.4 1.8 6 5.1 10 3.3 3.9 7.6 5.9 4.3 2 9.4 2 6.5 0 12-3.4 5.5-3.4 8.7-10.5 3.3-7.1 3.3-17.4zm60.9 9.9h-15.6v24.6q0 5.3-2.4 8.1-2.4 2.7-6.1 2.7-3.9 0-6.2-2.7-2.4-2.7-2.4-7.9v-67.3q0-5.8 2.6-8.3 2.6-2.5 8.2-2.5h21.9q9.7 0 14.9 1.5 5.2 1.5 9 5 3.7 3.4 5.7 8.4 1.9 5 1.9 11.3 0 13.3-7.9 20.2-7.9 6.9-23.6 6.9zm-4.1-40h-11.5v26.6h11.5q6 0 10.1-1.3 4-1.3 6.1-4.3 2.1-2.9 2.1-7.8 0-5.7-3.2-9.4-3.7-3.8-15.1-3.8zm100.9 1.3h-18.6v63.3q0 5.5-2.3 8.2-2.4 2.6-6.1 2.6-3.8 0-6.2-2.7-2.4-2.6-2.4-8.1v-63.3h-18.6q-4.3 0-6.5-2-2.1-2-2.1-5.3 0-3.4 2.2-5.3 2.2-2 6.4-2h54.2q4.5 0 6.6 2 2.2 2 2.2 5.3 0 3.3-2.2 5.3-2.2 2-6.6 2zm16 63.3v-68.7q0-5.3 2.3-8 2.4-2.7 6.1-2.7 3.8 0 6.2 2.7 2.4 2.6 2.4 8v68.7q0 5.5-2.4 8.1-2.4 2.7-6.2 2.7-3.7 0-6.1-2.7-2.3-2.7-2.3-8.1zm60.9-3.8l-13.5-55.6v60.2q0 5-2.1 7.5-2.2 2.5-5.8 2.5-3.4 0-5.6-2.5-2.2-2.4-2.2-7.5v-69q0-5.7 2.9-7.7 2.9-2 7.8-2h5.2q4.8 0 7 0.9 2.1 0.9 3.1 3.2 1.1 2.3 2.4 7.6l12.2 47.7 12.3-47.7q1.3-5.3 2.3-7.6 1-2.3 3.2-3.2 2.1-0.9 6.9-0.9h5.3q4.9 0 7.7 2 2.9 2 2.9 7.7v69q0 5-2.1 7.5-2.2 2.5-5.8 2.5-3.4 0-5.6-2.5-2.2-2.5-2.2-7.5v-60.2l-13.5 55.6q-1.3 5.4-2.1 7.9-0.8 2.6-3.1 4.6-2.2 2.1-6.2 2.1-3 0-5-1.3-2.1-1.4-3.2-3.4-1.2-2.1-1.8-4.7-0.7-2.5-1.4-5.2zm119.8 3.3l-4-11h-34.3l-4 11.2q-2.3 6.5-4 8.8-1.7 2.3-5.4 2.3-3.3 0-5.7-2.4-2.5-2.5-2.5-5.6 0-1.7 0.6-3.6 0.6-1.9 1.9-5.3l21.5-56.7q0.9-2.4 2.2-5.9 1.3-3.4 2.8-5.6 1.4-2.3 3.8-3.7 2.4-1.4 5.9-1.4 3.6 0 5.9 1.4 2.4 1.4 3.9 3.6 1.5 2.2 2.5 4.7 1 2.6 2.5 6.8l22 56.3q2.6 6.4 2.6 9.3 0 3.1-2.5 5.6-2.4 2.5-5.8 2.5-2.1 0-3.5-0.7-1.4-0.8-2.4-2-1-1.3-2.1-4-1.1-2.6-1.9-4.6zm-33.8-24.3h25.2l-12.7-36zm57.8 17.2l18.8-28.5-15.9-25.4q-2.2-3.7-3.3-6.3-1.1-2.7-1.1-5.1 0-2.5 2.1-4.5 2.2-2 5.3-2 3.5 0 5.5 2.2 2 2.2 5.5 8l12.6 21.2 13.5-21.2q1.7-2.6 2.9-4.5 1.1-1.9 2.2-3.2 1.1-1.2 2.5-1.9 1.3-0.6 3.1-0.6 3.2 0 5.3 2 2 2 2 4.7 0 4-4.4 10.9l-16.6 25.7 17.8 28.5q2.4 3.7 3.5 6.2 1.1 2.5 1.1 4.7 0 2-1 3.8-0.9 1.7-2.7 2.7-1.8 1-4 1-2.4 0-4.1-1-1.7-1.1-2.7-2.6-1-1.6-3.8-6l-14.9-24.2-15.7 24.9q-1.8 3-2.6 4.2-0.8 1.1-1.9 2.3-1.1 1.1-2.5 1.8-1.5 0.6-3.6 0.6-3.1 0-5.1-1.9-2-2-2-5.8 0-4.4 4.2-10.7zm74.3-68.8c4.2 0 7.6 3.4 7.6 7.5 0 4.2-3.4 7.5-7.6 7.5-4.1 0-7.5-3.3-7.5-7.5 0-4.1 3.4-7.5 7.5-7.5zm-6.1 7.5c0 3.4 2.7 6.2 6.1 6.2 1.6 0 3.1-0.7 4.2-1.7h0.2l-0.1-0.1c1.2-1.1 1.9-2.7 1.9-4.4 0-3.4-2.8-6.1-6.2-6.1-3.4 0-6.1 2.7-6.1 6.1zm2.7 4.5v-8.7h3.7q1.4 0 2 0.3 0.6 0.2 1 0.8 0.4 0.6 0.4 1.4 0 0.9-0.6 1.6-0.6 0.6-1.7 0.8 0.6 0.3 0.9 0.7 0.4 0.4 1 1.4l1 1.6q0 0.1-0.1 0.1h-1.9l-1.3-1.9q-0.6-1-0.9-1.2-0.2-0.3-0.5-0.4-0.3-0.1-0.9-0.1h-0.4v3.6zm1.8-5h1.3q1.3 0 1.6-0.1 0.3-0.1 0.5-0.4 0.1-0.2 0.1-0.6 0-0.5-0.2-0.7-0.2-0.3-0.7-0.4-0.2 0-1.2 0h-1.4z"/>
	</g>
</svg>